{"title":"Drake Ft. Majid Jordan - Hold On, We're Going Home [Music Video]","uid":9101209,"size":178488385,"categoryP":"video","categoryS":"music_videos","magnet":"?xt=urn:btih:c15817deca2f568b2aff855139ab568093ea1a31&amp;dn=Drake+Ft.+Majid+Jordan+-+Hold+On%2C+We%27re+Going+Home+%5BMusic+Video%5D&amp;tr=udp%3A%2F%2Ftracker.openbittorrent.com%3A80&amp;tr=udp%3A%2F%2Fopen.demonii.com%3A1337&amp;tr=udp%3A%2F%2Ftracker.coppersurfer.tk%3A6969&amp;tr=udp%3A%2F%2Fexodus.desync.com%3A6969","seeders":5,"leechers":0,"uploader":"Sbyky","files":1,"time":1382771411,"description":"[IMG]http://cdn.piczend.com/images/mvPiwBt9/1382762533_holdonweregoinghome.jpg[/IMG]\n\nGeneral\nComplete name                            : Drake Ft. Majid Jordan - Hold On, We're Going Home [Music Video] 1080p [Sbyky].MP4\nFormat                                   : MPEG-4\nFormat profile                           : Base Media / Version 2\nCodec ID                                 : mp42\nFile size                                : 170 MiB\nDuration                                 : 7mn 1s\nOverall bit rate mode                    : Variable\nOverall bit rate                         : 3 384 Kbps\nEncoded date                             : UTC 2013-09-25 01:01:21\nTagged date                              : UTC 2013-09-25 01:01:21\n\nVideo\nID                                       : 1\nFormat                                   : AVC\nFormat/Info                              : Advanced Video Codec\nFormat profile                           : &lt;a class=&quot;__cf_email__&quot; href=&quot;/cdn-cgi/l/email-protection&quot; data-cfemail=&quot;eda5848a85ada1d9c3dd&quot;&gt;[email&amp;#160;protected]&lt;/a&gt;&lt;script cf-hash='f9e31' type=&quot;text/javascript&quot;&gt;\n/* &lt;![CDATA[ */!function(){try{var t=&quot;currentScript&quot;in document?document.currentScript:function(){for(var t=document.getElementsByTagName(&quot;script&quot;),e=t.length;e--;)if(t[e].getAttribute(&quot;cf-hash&quot;))return t[e]}();if(t&amp;&amp;t.previousSibling){var e,r,n,i,c=t.previousSibling,a=c.getAttribute(&quot;data-cfemail&quot;);if(a){for(e=&quot;&quot;,r=parseInt(a.substr(0,2),16),n=2;a.length-n;n+=2)i=parseInt(a.substr(n,2),16)^r,e+=String.fromCharCode(i);e=document.createTextNode(e),c.parentNode.replaceChild(e,c)}}}catch(u){}}();/* ]]&gt; */&lt;/script&gt;\nFormat settings, CABAC                   : Yes\nFormat settings, ReFrames                : 2 frames\nCodec ID                                 : avc1\nCodec ID/Info                            : Advanced Video Coding\nDuration                                 : 7mn 1s\nSource duration                          : 7mn 1s\nBit rate                                 : 3 130 Kbps\nWidth                                    : 1 920 pixels\nHeight                                   : 1 080 pixels\nDisplay aspect ratio                     : 16:9\nFrame rate mode                          : Constant\nFrame rate                               : 23.976 fps\nColor space                              : YUV\nChroma subsampling                       : 4:2:0\nBit depth                                : 8 bits\nScan type                                : Progressive\nBits/(Pixel*Frame)                       : 0.063\nStream size                              : 157 MiB (92%)\nSource stream size                       : 157 MiB (92%)\nEncoded date                             : UTC 2013-09-25 01:01:21\nTagged date                              : UTC 2013-09-25 01:01:21\n\nAudio\nID                                       : 2\nFormat                                   : AAC\nFormat/Info                              : Advanced Audio Codec\nFormat profile                           : LC\nCodec ID                                 : 40\nDuration                                 : 7mn 1s\nBit rate mode                            : Variable\nBit rate                                 : 254 Kbps\nChannel(s)                               : 2 channels\nChannel positions                        : Front: L R\nSampling rate                            : 44.1 KHz\nCompression mode                         : Lossy\nStream size                              : 12.8 MiB (7%)\nEncoded date                             : UTC 2013-09-25 01:01:11\nTagged date                              : UTC 2013-09-25 01:01:11\n\nShared By Sbyky\n[IMG]http://cdn.piczend.com/images/X3Ag13N3/1379453786_saythanks.gif[/IMG]\n[IMG]http://cdn.piczend.com/images/gGqhX2S8/1379453780_keepseeding.gif[/IMG]","torrent":{"xt":"urn:btih:c15817deca2f568b2aff855139ab568093ea1a31","amp;dn":"Drake+Ft.+Majid+Jordan+-+Hold+On%2C+We%27re+Going+Home+%5BMusic+Video%5D","amp;tr":["udp%3A%2F%2Ftracker.openbittorrent.com%3A80","udp%3A%2F%2Fopen.demonii.com%3A1337","udp%3A%2F%2Ftracker.coppersurfer.tk%3A6969","udp%3A%2F%2Fexodus.desync.com%3A6969"],"infoHash":"c15817deca2f568b2aff855139ab568093ea1a31","infoHashBuffer":{"type":"Buffer","data":[193,88,23,222,202,47,86,139,42,255,133,81,57,171,86,128,147,234,26,49]},"announce":[],"urlList":[]}}